<?xml version="1.0" encoding="UTF-8"?>
<svg xmlns="http://www.w3.org/2000/svg" viewBox="0 0 1366 768">
  <defs>
    <style>
      .cls-1 {
        fill: #f2f2f2;
      }

      .cls-2 {
        fill: #e4e4f9;
        stroke: #000;
        stroke-miterlimit: 10;
      }
    </style>
  </defs>
  <g id="_레이어_1" data-name="레이어_1">
    <rect class="cls-1" width="1366" height="768"/>
  </g>
  <g id="_레이어_2" data-name="레이어_2">
    <path class="cls-2" d="M484,135.5c0-15.19-23.28-27.5-52-27.5-14.26,0-27.18,3.04-36.57,7.96-8.2-2.52-17.52-3.96-27.43-3.96-32.58,0-59,15.45-59,34.5,0,4.76,1.65,9.3,4.63,13.42-7.27,3.28-11.63,7.49-11.63,12.08,0,10.49,22.83,19,51,19,16.36,0,30.91-2.87,40.24-7.33,7.84,2.73,17.41,4.33,27.76,4.33,26.51,0,48-10.52,48-23.5,0-2.88-1.07-5.65-3.01-8.2,11.02-5.04,18.01-12.49,18.01-20.8Z"/>
    <path class="cls-2" d="M1218,135.5c0-15.19-23.28-27.5-52-27.5-14.26,0-27.18,3.04-36.57,7.96-8.2-2.52-17.52-3.96-27.43-3.96-32.58,0-59,15.45-59,34.5,0,4.76,1.65,9.3,4.63,13.42-7.27,3.28-11.63,7.49-11.63,12.08,0,10.49,22.83,19,51,19,16.36,0,30.91-2.87,40.24-7.33,7.84,2.73,17.41,4.33,27.76,4.33,26.51,0,48-10.52,48-23.5,0-2.88-1.07-5.65-3.01-8.2,11.02-5.04,18.01-12.49,18.01-20.8Z"/>
    <path class="cls-2" d="M1052,567.5c0-15.19-23.28-27.5-52-27.5-14.26,0-27.18,3.04-36.57,7.96-8.2-2.52-17.52-3.96-27.43-3.96-32.58,0-59,15.45-59,34.5,0,4.76,1.65,9.3,4.63,13.42-7.27,3.28-11.63,7.49-11.63,12.08,0,10.49,22.83,19,51,19,16.36,0,30.91-2.87,40.24-7.33,7.84,2.73,17.41,4.33,27.76,4.33,26.51,0,48-10.52,48-23.5,0-2.88-1.07-5.65-3.01-8.2,11.02-5.04,18.01-12.49,18.01-20.8Z"/>
    <path class="cls-2" d="M343,567.5c0-15.19-23.28-27.5-52-27.5-14.26,0-27.18,3.04-36.57,7.96-8.2-2.52-17.52-3.96-27.43-3.96-32.58,0-59,15.45-59,34.5,0,4.76,1.65,9.3,4.63,13.42-7.27,3.28-11.63,7.49-11.63,12.08,0,10.49,22.83,19,51,19,16.36,0,30.91-2.87,40.24-7.33,7.84,2.73,17.41,4.33,27.76,4.33,26.51,0,48-10.52,48-23.5,0-2.88-1.07-5.65-3.01-8.2,11.02-5.04,18.01-12.49,18.01-20.8Z"/>
  </g>
</svg>