<?xml version="1.0" encoding="UTF-8"?>
<svg id="_레이어_1" data-name="레이어_1" xmlns="http://www.w3.org/2000/svg" viewBox="0 0 1499 3104.17">
  <defs>
    <style>
      .cls-1 {
        fill: #f2f2f2;
      }

      .cls-2 {
        fill: #e4e4f9;
        stroke: #000;
        stroke-miterlimit: 10;
      }
    </style>
  </defs>
  <rect class="cls-1" x="261.17" y="22.75" width="1125" height="3000"/>
  <g>
    <path class="cls-2" d="M602.5,834.09c0-50.24-77.01-90.96-172-90.96-47.17,0-89.9,10.05-120.97,26.31-27.11-8.34-57.96-13.08-90.72-13.08-107.78,0-195.15,51.09-195.15,114.12,0,15.75,5.46,30.75,15.32,44.39-24.04,10.86-38.47,24.78-38.47,39.95,0,34.71,75.53,62.85,168.69,62.85,54.11,0,102.23-9.5,133.1-24.26,25.93,9.02,57.59,14.34,91.82,14.34,87.69,0,158.77-34.8,158.77-77.73,0-9.54-3.53-18.67-9.95-27.12,36.46-16.68,59.57-41.31,59.57-68.8Z"/>
    <path class="cls-2" d="M1498.5,71.21c0-39.05-59.87-70.71-133.71-70.71-36.67,0-69.89,7.81-94.05,20.46-21.07-6.48-45.06-10.17-70.53-10.17-83.79,0-151.71,39.72-151.71,88.71,0,12.24,4.24,23.9,11.91,34.51-18.69,8.44-29.91,19.26-29.91,31.06,0,26.98,58.71,48.86,131.14,48.86,42.07,0,79.48-7.39,103.48-18.86,20.16,7.01,44.77,11.15,71.38,11.15,68.17,0,123.43-27.05,123.43-60.43,0-7.42-2.74-14.52-7.74-21.08,28.35-12.97,46.31-32.11,46.31-53.49Z"/>
    <path class="cls-2" d="M602.5,1947.09c0-50.24-77.01-90.96-172-90.96-47.17,0-89.9,10.05-120.97,26.31-27.11-8.34-57.96-13.08-90.72-13.08-107.78,0-195.15,51.09-195.15,114.12,0,15.75,5.46,30.75,15.32,44.39-24.04,10.86-38.47,24.78-38.47,39.95,0,34.71,75.53,62.85,168.69,62.85,54.11,0,102.23-9.5,133.1-24.26,25.93,9.02,57.59,14.34,91.82,14.34,87.69,0,158.77-34.8,158.77-77.73,0-9.54-3.53-18.67-9.95-27.12,36.46-16.68,59.57-41.31,59.57-68.8Z"/>
    <path class="cls-2" d="M1498.5,1184.21c0-39.05-59.87-70.71-133.71-70.71-36.67,0-69.89,7.81-94.05,20.46-21.07-6.48-45.06-10.17-70.53-10.17-83.79,0-151.71,39.72-151.71,88.71,0,12.24,4.24,23.9,11.91,34.51-18.69,8.44-29.91,19.26-29.91,31.06,0,26.98,58.71,48.86,131.14,48.86,42.07,0,79.48-7.39,103.48-18.86,20.16,7.01,44.77,11.15,71.38,11.15,68.17,0,123.43-27.05,123.43-60.43,0-7.42-2.74-14.52-7.74-21.08,28.35-12.97,46.31-32.11,46.31-53.49Z"/>
    <path class="cls-2" d="M602.5,2920.09c0-50.24-77.01-90.96-172-90.96-47.17,0-89.9,10.05-120.97,26.31-27.11-8.34-57.96-13.08-90.72-13.08-107.78,0-195.15,51.09-195.15,114.12,0,15.75,5.46,30.75,15.32,44.39-24.04,10.86-38.47,24.78-38.47,39.95,0,34.71,75.53,62.85,168.69,62.85,54.11,0,102.23-9.5,133.1-24.26,25.93,9.02,57.59,14.34,91.82,14.34,87.69,0,158.77-34.8,158.77-77.73,0-9.54-3.53-18.67-9.95-27.12,36.46-16.68,59.57-41.31,59.57-68.8Z"/>
    <path class="cls-2" d="M1498.5,2523.21c0-39.05-59.87-70.71-133.71-70.71-36.67,0-69.89,7.81-94.05,20.46-21.07-6.48-45.06-10.17-70.53-10.17-83.79,0-151.71,39.72-151.71,88.71,0,12.24,4.24,23.9,11.91,34.51-18.69,8.44-29.91,19.26-29.91,31.06,0,26.98,58.71,48.86,131.14,48.86,42.07,0,79.48-7.39,103.48-18.86,20.16,7.01,44.77,11.15,71.38,11.15,68.17,0,123.43-27.05,123.43-60.43,0-7.42-2.74-14.52-7.74-21.08,28.35-12.97,46.31-32.11,46.31-53.49Z"/>
  </g>
</svg>